<?xml version="1.0" encoding="utf-8"?>
<!-- Generator: Adobe Illustrator 14.0.0, SVG Export Plug-In . SVG Version: 6.00 Build 43363)  -->
<!DOCTYPE svg PUBLIC "-//W3C//DTD SVG 1.1//EN" "http://www.w3.org/Graphics/SVG/1.1/DTD/svg11.dtd">
<svg version="1.1" id="레이어_1" xmlns="http://www.w3.org/2000/svg" xmlns:xlink="http://www.w3.org/1999/xlink" x="0px"
	 y="0px" width="300px" height="300px" viewBox="0 0 300 300" style="enable-background:new 0 0 300 300;" xml:space="preserve">
<style type="text/css">
<![CDATA[
	.st0{fill:#4089B6;}
]]>
</style>
<ellipse class="st0" cx="150" cy="60.675" rx="6.929" ry="7.53"/>
<ellipse transform="matrix(0.866 -0.5 0.5 0.866 -18.9763 67.6692)" class="st0" cx="116.785" cy="69.245" rx="6.929" ry="7.53"/>
<ellipse transform="matrix(0.5 -0.866 0.866 0.5 -34.6255 126.577)" class="st0" cx="92.306" cy="93.275" rx="6.929" ry="7.53"/>
<ellipse class="st0" cx="83.121" cy="126.325" rx="7.53" ry="6.929"/>
<ellipse transform="matrix(-0.5 -0.866 0.866 -0.5 -0.6288 318.7161)" class="st0" cx="91.691" cy="159.54" rx="6.929" ry="7.53"/>
<ellipse transform="matrix(-0.866 -0.5 0.5 -0.866 123.9299 401.2448)" class="st0" cx="115.721" cy="184.019" rx="6.929" ry="7.531"/>
<ellipse class="st0" cx="148.771" cy="193.204" rx="6.929" ry="7.531"/>
<ellipse transform="matrix(-0.866 0.5 -0.5 -0.866 431.9066 253.5384)" class="st0" cx="181.986" cy="184.633" rx="6.929" ry="7.531"/>
<ellipse transform="matrix(-0.5 0.866 -0.866 -0.5 448.7848 62.1009)" class="st0" cx="206.465" cy="160.604" rx="6.929" ry="7.532"/>
<ellipse class="st0" cx="215.65" cy="127.554" rx="7.531" ry="6.929"/>
<ellipse transform="matrix(0.5 0.866 -0.866 0.5 185.2404 -132.1668)" class="st0" cx="207.08" cy="94.339" rx="6.929" ry="7.531"/>
<ellipse transform="matrix(0.866 0.5 -0.5 0.866 59.4531 -82.1648)" class="st0" cx="183.049" cy="69.859" rx="6.929" ry="7.531"/>
</svg>
