<?xml version="1.0" encoding="utf-8"?>
<!-- Generator: Adobe Illustrator 14.0.0, SVG Export Plug-In . SVG Version: 6.00 Build 43363)  -->
<!DOCTYPE svg PUBLIC "-//W3C//DTD SVG 1.1//EN" "http://www.w3.org/Graphics/SVG/1.1/DTD/svg11.dtd">
<svg version="1.1" id="레이어_1" xmlns="http://www.w3.org/2000/svg" xmlns:xlink="http://www.w3.org/1999/xlink" x="0px"
	 y="0px" width="600px" height="400px" viewBox="0 0 600 400" style="enable-background:new 0 0 600 400;" xml:space="preserve">
	 <style>
	 	.st0{animation:blink 9s infinite}
        @keyframes blink{
			50%{opacity:1;}
			100%{opacity:1}	            
        }
	 </style>
<g>
	<g>
		<g>
			<g>
				<g>
					<path d="M120.769,131.511c-3.332-13.819-2.068-22.893,3.695-37.415c1.649-3.933,5.691-11.645,12.317-20.194
						c6.521-8.543,15.486-18.098,23.934-27.073c16.722-17.648,39.904-20.66,39.51-20.657c-0.411,0.586,22.588-6.327,44.067,4.912
						c10.675,5.196,20.432,13.479,26.895,21.739c6.686,8.194,9.343,16.344,10.779,20.455c4.515,15.331,6.293,25.256,12.623,38.061
						c-1.527-14.096-0.39-23.521-5.182-40.402c-1.449-4.371-4.639-13.9-12.053-22.979c-7.174-9.159-17.776-18.158-29.603-23.92
						c-11.614-6.019-25.041-7.846-33.988-7.151c-9.156,0.282-14.978,1.683-14.977,1.618c0.495,0.002-24.981,3.198-43.685,22.837
						c-8.674,9.206-17.625,18.718-24.557,27.783c-6.961,8.977-11.434,17.462-13.251,21.9
						C110.618,107.417,112.72,120.006,120.769,131.511z"/>
				</g>
			</g>
		</g>
	</g>
	<g>
		<g>
			<g>
				<g>
					<path d="M116.477,116.918c-10.726-1.409-20.063-1.461-29.846,0.776c-4.853,1.213-9.955,3.022-14.76,6.908
						c-5.093,3.929-7.819,11.066-8.565,17.754c-0.427,3.675-0.941,10.471,3.658,17.229c4.582,6.693,12.954,10.593,21.423,12.695
						c16.88,5.042,37.591,6.04,56.798,6.062c19.192,0.125,37.764-0.214,51.449-2.016c13.687-1.653,22.372-4.141,22.316-4.103
						c-0.05-0.112,8.64-1.95,21.633-5.871c13.051-3.608,30.552-9.697,48.812-13.949c18.418-3.833,39.005-7.158,55.025-15.056
						c8.035-3.835,15.282-9.822,18.094-17.296c2.945-6.97,1.496-14.85-1.458-18.157c-21.531-19.768-38.897-19.116-60.03-16.735
						c10.75,1.208,19.764,2.396,28.229,5.628c7.794,3.844,18.865,7.563,25.385,15.545c3.999,3.216,1.85,17.625-13.704,23.974
						c-14.717,7.256-34.18,10.485-53.236,14.433c-19.126,4.478-36.292,10.508-49.3,14.106c-12.901,3.903-21.313,5.678-21.298,5.8
						c-0.046-0.013-8.223,2.333-21.411,3.919c-13.161,1.727-31.296,2.062-50.473,1.928c-19.087-0.03-38.869-1.036-54.724-5.78
						c-7.909-1.906-14.288-5.357-17.086-9.59c-2.904-4.164-2.71-8.817-2.358-11.823c0.824-12.251,8.643-16.582,17.289-20.142
						C96.864,119.917,105.738,117.985,116.477,116.918z"/>
				</g>
			</g>
		</g>
	</g>
	<g>
		<g>
			<g>
				<g>
					<path d="M149.952,174.429c-2.135,15.714,3.193,26.123,10.743,42.57c6.431,22.521,88.018,81.513,93.649,73.46
						c-0.166-0.436,7.023,2.288,17.486-2.385c10.264-4.87,18.246-17.009,23.555-29.697c10.14-25.854,16.677-54.419,18.095-64.673
						c2.183-18.071,0.41-31.123-10.309-42.451c6.208,13.999,4.518,24.049,2.589,41.33c-1.237,9.117-7.995,38.275-17.592,62.708
						c-4.965,12.058-12.351,22.403-19.764,25.755c-7.222,3.352-13.188,1.387-13.056,1.679c0.033,0.014-5.537-0.463-13.698-4.282
						c-8.024-3.756-18.355-11.571-29.182-19.471c-10.668-7.983-21.483-16.985-29.501-25.338
						c-8.144-8.354-13.22-16.319-15.445-20.406C160.131,197.129,152.771,189.327,149.952,174.429z"/>
				</g>
			</g>
		</g>
	</g>
	<g>
		<g>
			<g>
				<g>
					<path d="M251.24,170.138c-0.188,3.145,0.112,5.406,2.438,7.014c2.605,2.515,15.754,7.061,15.376,7.037
						c0.005-0.057,2.807,1.372,6.311,2.86l0.056,0.006c0.437,0.392-1.904-1.245-1.698-2.559c-0.388-1.853,1.161-3.245,0.605-2.634
						c-0.173,0.173-0.556,0.593-0.93,1.003c-0.697,0.751-1.405,1.749-1.873,2.305c-0.574,0.81-1.538,1.609-2.028,2.095
						c-2.002,1.716-2.777,5.207-0.66,7.767c3.077-1.517,4.212-0.396,5.887-1.976c0.467-0.452,1.67-1.324,3.074-3.157
						c0.586-0.707,0.904-1.187,1.457-1.795c0.247-0.272,0.493-0.544,0.967-1.05c-0.248,0.305,1.658-1.549,1.257-3.784
						c0.038-1.47-2.388-3.369-2.186-3.044l-0.582-0.277c-3.337-1.394-6.579-2.989-6.619-2.944
						c-0.271-0.208-12.698-4.733-14.048-6.316C256.201,169.551,254.553,169.734,251.24,170.138z"/>
				</g>
			</g>
		</g>
	</g>
	<g>
		<g>
			<g>
				<g>
					<path d="M182.571,237.949c-13.083-1.659-22.604,1.124-36.636,6.51c-4.038,1.574-10.989,4.184-21.101,5.845
						c-4.992,1.002-10.542,2.115-16.266,3.98c-2.859,0.914-5.775,2.111-8.627,3.729c-1.426,0.788-2.833,1.771-4.157,2.914
						l-0.979,0.899l-0.484,0.453c-0.552,10.179-0.137,2.841-0.252,5.121l0.028,0.033l0.057,0.066l0.114,0.132l0.229,0.264
						c0.609,0.716,1.234,1.401,1.892,1.943c10.641,8.244,21.578,10.077,28.876,13.122c7.081,2.881,12.163,5.122,12.077,5.044
						c-0.135,0.263,19.654,7.281,39.006,18.353c18.942,11.516,38.337,28.068,46.179,31.816c13.568,7.935,23.469,10.01,36.439,8.788
						c-12.503-3.826-19.591-7.941-32.42-15.474c-7.318-3.491-26.046-19.586-46.204-31.888
						c-20.44-11.646-40.129-18.509-39.982-18.789c-0.116-0.003-4.543-1.989-12.388-5.187c-7.492-2.92-18.798-5.603-26.328-11.616
						c-0.456-0.364-0.78-0.753-1.107-1.129l-0.128-0.141l-0.065-0.069l-0.032-0.035l-0.016-0.018
						c-0.125,2.264,0.255-5.092-0.283,5.071l0.311-0.276l0.614-0.561c0.854-0.731,1.824-1.434,2.926-2.033
						c2.169-1.229,4.61-2.264,7.167-3.072c5.095-1.663,10.402-2.75,15.341-3.739c9.953-1.598,18.702-4.736,22.359-6.266
						C163.192,246.118,169.945,241.342,182.571,237.949z"/>
				</g>
			</g>
		</g>
	</g>
	<g>
		<g>
			<g>
				<g>
					<path d="M306.176,203.615c14.517,2.373,24.957,3.199,42.284,0.506c4.838-0.585,14.403-2.483,25.596-5.806
						c5.791-1.396,11.886-4.396,17.564-6.279c2.866-0.984,5.889-1.759,8.201-1.746c0.506,0.05,1.021,0.085,1.291,0.202l0.128,0.024
						l0.032,0.005c2.204,3.062-2.982-4.171-2.45-3.412v0.031l-0.003,0.127l-0.011,0.506l-0.01,1.011
						c-0.055,1.354-0.213,2.755-0.555,4.157c-2.778,11.398-10.308,21.665-15.299,29.067c-5.245,7.408-8.698,12.521-8.643,12.441
						c0.313-0.114-13.901,19.313-28.228,40.735c-7.39,10.516-16.052,20.641-24.242,28.36c-8.25,7.258-15.862,14.395-18.795,17.85
						c-12.005,12.943-17.008,20.914-27.764,31.147c13.538-6.014,21.703-13.268,33.431-25.787c3.275-3.7,9.458-9.509,18.516-17.492
						c8.602-8.09,17.682-18.737,25.243-29.517c14.595-21.842,28.318-40.611,28.313-40.946c0.055-0.081,3.226-4.769,8.581-12.319
						c5.071-7.688,12.998-17.819,16.558-31.876c0.418-1.753,0.656-3.631,0.73-5.539l0.015-1.449l0.002-0.725l0.001-0.181v-0.045
						c0.544,0.725-4.691-6.498-2.505-3.448l-0.115-0.037l-0.465-0.144c-1.287-0.438-2.421-0.521-3.551-0.598
						c-4.285,0.015-7.666,1.092-10.911,2.149c-6.586,2.215-11.813,4.886-17.276,6.191c-10.915,3.242-19.945,5.04-24.483,5.621
						C330.225,199.175,320.788,200.989,306.176,203.615z"/>
				</g>
			</g>
		</g>
	</g>
	<g>
		<g>
			<g>
				<g>
					<path d="M106.176,274.859c-7.604-2.756-13.909-2.575-22.758,0.721c-4.806,1.88-18.968,8.258-29.292,18.768
						c-10.567,11.317-12.582,24.651-12.906,24.401c0.017,0.255-3.683,11.858-4.958,26.363c-1.43,14.868,6.119,29.885,8.633,33.974
						c2.44,4.234,4.469,6.771,6.15,9.352c1.749,2.715,3.895,5.896,7.061,8.311c-1.12-3.93-1.052-6.863-1.753-10.452
						c-0.76-3.759-2.573-7.288-4.631-10.983c-2.385-4.117-8.839-16.884-7.622-29.784c1.061-12.645,4.721-24.894,4.613-24.612
						c0.167,0.284,2.568-12.294,11.034-21.09c8.892-9.109,22.325-15.334,26.576-17.006
						C94.482,279.745,98.533,277.147,106.176,274.859z"/>
				</g>
			</g>
		</g>
	</g>
	<g>
		<g>
			<g>
				<g>
					<path d="M386.005,225.933c9.012,5.996,13.652,10.963,23.088,18.854c10.386,7.796,56.516,59.384,58.329,57.882
						c-0.298,0.271,14.049,10.372,25.914,23.876c11.361,14.12,20.615,32.678,22.886,38.509c4.23,11.224,6.675,18.586,13.131,27.403
						c-1.815-10.646-1.324-17.734-5.852-30.208c-2.667-6.861-11.845-25.413-24.152-40.75
						c-13.115-14.814-27.199-24.475-26.907-24.801c-1.412,1.862-46.633-49.021-58.263-57.825
						C404.273,230.662,396.813,227.221,386.005,225.933z"/>
				</g>
			</g>
		</g>
	</g>
	<g>
		<g>
			<g>
				<g>
					<path d="M224.631,280.868c-2.079,2.948-3.175,5.229-2.357,8.604c0.071,4.069,8.747,20.567,9.202,20.188
						c0.413,0.183,9.18,14.318,11.848,17.788c2.165,2.762,5.269,3.588,8.776,2.777c-1.074-3.642-0.841-5.236-2.636-7.589
						c-1.554-2.113-11.46-17.663-11.441-17.219c-0.499,0.192-8.083-14.538-8.196-17.896
						C229.011,284.633,227.507,283.263,224.631,280.868z"/>
				</g>
			</g>
		</g>
	</g>
	<g>
		<g>
			<g>
				<g>
					<path d="M293.3,267.992c-2.236,3.627-3.415,6.003-3.301,10.055c0.647,4.465-0.508,26.142-1.035,26.034
						c-0.041-0.018-0.752,5.34-2.478,10.877c-1.62,5.596-4.596,11.053-5.715,12.757c-2.021,3.2-2.3,5.538-2.922,9.806
						c4.133-0.723,7-1.876,9.489-5.595c1.396-1.981,4.867-8.397,6.654-14.669c1.917-6.231,2.639-12.023,2.686-12.014
						c0.579-0.01,1.929-23.038,1.115-27.522C297.552,273.531,296.033,271.239,293.3,267.992z"/>
				</g>
			</g>
		</g>
	</g>
	<g>
		<g>
			<g>
				<g>
					<path d="M204.888,328.078c-0.294,4.693-1.083,7.053-0.144,11.5c0.502,2.105,1.515,10.553,4.76,17.376
						c2.959,6.904,6.487,12.373,6.436,12.41c-0.025-0.02,13.017,22.212,17.383,26.239c3.304,3.671,7.237,5.263,11.909,4.148
						c-2.835-3.661-3.053-6.005-6.04-9.287c-3.382-3.022-16.563-25.043-16.531-25.06c0.056-0.009-3.347-5.413-5.923-11.499
						c-2.876-6.024-3.639-13.095-4.358-15.923C211.298,333.212,208.996,330.324,204.888,328.078z"/>
				</g>
			</g>
		</g>
	</g>
	<g>
		<g>
			<g>
				<g>
					<path d="M319.051,310.911c-2.556,4.145-3.908,7.128-3.79,12.233c0.143,5.648,1.924,32.699,1.57,32.605
						c-0.132,0.09,0.519,6.593-1.778,12.672c-2.197,6.137-7.74,11.657-9.567,13.515c-3.442,3.401-4.694,6.288-6.177,10.948
						c4.792-0.937,7.844-1.807,11.648-5.388c1.933-1.919,8.462-8.172,11.453-16.338c2.976-8.14,2.033-15.716,2.222-15.502
						c0.351-0.121-1.323-27.561-1.576-32.804C322.824,317.9,321.479,315.175,319.051,310.911z"/>
				</g>
			</g>
		</g>
	</g>
	<g>
		<g>
			<g>
				<g>
					<path d="M133.5,130.5c2.146,7.532,8.28,10.799,16.245,13.031c4.834,1.174,17.703,3.849,30.959,4.526
						c13.101,0.36,24.457-2.655,24.458-2.515c0.439,0.924,44.124-12.575,51.958-18.281c7.6-3.879,11.087-7.823,15.381-13.761
						c-7.204,1.884-11.613,3.207-18.908,6.803c-7.195,5.234-50.019,18.606-50.069,17.612c0.022-0.127-10.775,2.658-22.617,2.295
						c-11.567-0.557-25.391-3.305-29.289-4.251C143.964,133.695,139.453,134.483,133.5,130.5z"/>
				</g>
			</g>
		</g>
	</g>
	<g>
		<g>
			<g>
				<g>
					<path d="M137.5,103.5c6.037,4.181,10.307,6.687,18.458,8.573c4.404,1.03,17.758,3.871,30.297,5.097
						c12.519,1.391,24.094,0.858,24.083,0.861c-0.026-0.075,11.604-0.139,24.096-3.224c12.594-2.787,25.14-9.64,28.919-12.376
						c7.173-4.849,10.08-9.286,13.147-15.931c-6.645,3.17-10.809,5.063-17.404,9.395c-3.489,2.44-14.873,8.682-26.524,11.287
						c-11.544,2.876-22.563,2.987-22.534,3.055c0.008-0.006-10.923,0.477-22.977-0.875c-12.052-1.191-25.087-3.957-29.414-4.904
						C149.648,102.729,144.827,102.868,137.5,103.5z"/>
				</g>
			</g>
		</g>
	</g>
</g>
</svg>
